<!-- Generated by IcoMoon.io -->
<svg version="1.1" xmlns="http://www.w3.org/2000/svg" width="31" height="32" viewBox="0 0 31 32">
<title>Ingresa-button_2</title>
<path d="M15.628 0.252c-8.668 0-15.626 7.081-15.626 15.626s7.081 15.626 15.626 15.626 15.626-7.081 15.626-15.626-6.958-15.626-15.626-15.626zM15.506 6.234c2.442 0 4.517 2.075 4.517 4.517 0 2.564-1.953 4.639-4.517 4.639s-4.639-1.953-4.639-4.517c0 0 0-0.122 0-0.122v0c0.122-2.442 2.197-4.395 4.639-4.517zM7.693 22.836c-0.244-3.174 1.465-6.226 4.273-7.691 1.587 2.075 4.395 2.442 6.47 0.855 0.366-0.244 0.61-0.488 0.855-0.855 2.808 1.465 4.395 4.517 4.273 7.691-4.761 3.784-11.353 3.784-15.87 0z" fill="#19264a"></path>
</svg>
