<svg xmlns="http://www.w3.org/2000/svg" width="7.938" height="10" viewBox="0 0 7.938 10">
  <path id="Path_82" data-name="Path 82" d="M314.486,301.776v-.551a3.211,3.211,0,0,0-3.211-3.211h0a3.211,3.211,0,0,0-3.211,3.211v.551a.943.943,0,0,0-.758.925v3.93a1.382,1.382,0,0,0,1.382,1.382h5.174a1.382,1.382,0,0,0,1.382-1.382V302.7A.943.943,0,0,0,314.486,301.776Zm-2.81,3.2v.753a.4.4,0,0,1-.8,0v-.753a.711.711,0,1,1,.8,0Zm1.574-3.222H309.3v-.533a1.975,1.975,0,0,1,3.951,0Z" transform="translate(-307.305 -298.013)" fill="#19264a"/>
</svg>
